<mxfile host="Electron" agent="Mozilla/5.0 (Windows NT 10.0; Win64; x64) AppleWebKit/537.36 (KHTML, like Gecko) draw.io/28.1.2 Chrome/138.0.7204.243 Electron/37.4.0 Safari/537.36" version="28.1.2">
  <diagram name="PÃ¡gina-1" id="j-sDlU9EBeW61bwGV47C">
    <mxGraphModel dx="983" dy="580" grid="1" gridSize="10" guides="1" tooltips="1" connect="1" arrows="1" fold="1" page="1" pageScale="1" pageWidth="827" pageHeight="1169" math="0" shadow="0">
      <root>
        <mxCell id="0" />
        <mxCell id="1" parent="0" />
        <mxCell id="FCD5nn3ERw38IQWh4Jvh-64" style="edgeStyle=orthogonalEdgeStyle;rounded=0;orthogonalLoop=1;jettySize=auto;html=1;exitX=1;exitY=0.5;exitDx=0;exitDy=0;entryX=0;entryY=0.5;entryDx=0;entryDy=0;" edge="1" parent="1" source="FCD5nn3ERw38IQWh4Jvh-1" target="FCD5nn3ERw38IQWh4Jvh-46">
          <mxGeometry relative="1" as="geometry" />
        </mxCell>
        <mxCell id="FCD5nn3ERw38IQWh4Jvh-67" style="edgeStyle=orthogonalEdgeStyle;rounded=0;orthogonalLoop=1;jettySize=auto;html=1;exitX=0.5;exitY=1;exitDx=0;exitDy=0;entryX=0.5;entryY=0;entryDx=0;entryDy=0;" edge="1" parent="1" source="FCD5nn3ERw38IQWh4Jvh-1" target="FCD5nn3ERw38IQWh4Jvh-38">
          <mxGeometry relative="1" as="geometry" />
        </mxCell>
        <mxCell id="FCD5nn3ERw38IQWh4Jvh-68" style="edgeStyle=orthogonalEdgeStyle;rounded=0;orthogonalLoop=1;jettySize=auto;html=1;exitX=0.25;exitY=1;exitDx=0;exitDy=0;entryX=0.5;entryY=0;entryDx=0;entryDy=0;" edge="1" parent="1" source="FCD5nn3ERw38IQWh4Jvh-1" target="FCD5nn3ERw38IQWh4Jvh-39">
          <mxGeometry relative="1" as="geometry" />
        </mxCell>
        <mxCell id="FCD5nn3ERw38IQWh4Jvh-69" style="edgeStyle=orthogonalEdgeStyle;rounded=0;orthogonalLoop=1;jettySize=auto;html=1;exitX=0.5;exitY=0;exitDx=0;exitDy=0;entryX=0.5;entryY=1;entryDx=0;entryDy=0;" edge="1" parent="1" source="FCD5nn3ERw38IQWh4Jvh-1" target="FCD5nn3ERw38IQWh4Jvh-52">
          <mxGeometry relative="1" as="geometry" />
        </mxCell>
        <mxCell id="FCD5nn3ERw38IQWh4Jvh-1" value="Coche" style="whiteSpace=wrap;html=1;align=center;" vertex="1" parent="1">
          <mxGeometry x="560" y="630" width="100" height="40" as="geometry" />
        </mxCell>
        <mxCell id="FCD5nn3ERw38IQWh4Jvh-5" style="edgeStyle=orthogonalEdgeStyle;rounded=0;orthogonalLoop=1;jettySize=auto;html=1;exitX=0.5;exitY=1;exitDx=0;exitDy=0;entryX=0.5;entryY=0;entryDx=0;entryDy=0;" edge="1" parent="1" source="FCD5nn3ERw38IQWh4Jvh-2" target="FCD5nn3ERw38IQWh4Jvh-4">
          <mxGeometry relative="1" as="geometry" />
        </mxCell>
        <mxCell id="FCD5nn3ERw38IQWh4Jvh-6" style="edgeStyle=orthogonalEdgeStyle;rounded=0;orthogonalLoop=1;jettySize=auto;html=1;exitX=0;exitY=0.5;exitDx=0;exitDy=0;entryX=0;entryY=0.5;entryDx=0;entryDy=0;" edge="1" parent="1" source="FCD5nn3ERw38IQWh4Jvh-2" target="FCD5nn3ERw38IQWh4Jvh-4">
          <mxGeometry relative="1" as="geometry">
            <Array as="points">
              <mxPoint x="100" y="590" />
              <mxPoint x="100" y="750" />
            </Array>
          </mxGeometry>
        </mxCell>
        <mxCell id="FCD5nn3ERw38IQWh4Jvh-70" style="edgeStyle=orthogonalEdgeStyle;rounded=0;orthogonalLoop=1;jettySize=auto;html=1;exitX=0.5;exitY=0;exitDx=0;exitDy=0;entryX=0.5;entryY=1;entryDx=0;entryDy=0;" edge="1" parent="1" source="FCD5nn3ERw38IQWh4Jvh-2" target="FCD5nn3ERw38IQWh4Jvh-51">
          <mxGeometry relative="1" as="geometry" />
        </mxCell>
        <mxCell id="FCD5nn3ERw38IQWh4Jvh-71" style="edgeStyle=orthogonalEdgeStyle;rounded=0;orthogonalLoop=1;jettySize=auto;html=1;exitX=0.75;exitY=0;exitDx=0;exitDy=0;entryX=0;entryY=0.5;entryDx=0;entryDy=0;" edge="1" parent="1" source="FCD5nn3ERw38IQWh4Jvh-2" target="FCD5nn3ERw38IQWh4Jvh-14">
          <mxGeometry relative="1" as="geometry" />
        </mxCell>
        <mxCell id="FCD5nn3ERw38IQWh4Jvh-72" style="edgeStyle=orthogonalEdgeStyle;rounded=0;orthogonalLoop=1;jettySize=auto;html=1;exitX=1;exitY=0;exitDx=0;exitDy=0;entryX=0;entryY=0.5;entryDx=0;entryDy=0;" edge="1" parent="1" source="FCD5nn3ERw38IQWh4Jvh-2" target="FCD5nn3ERw38IQWh4Jvh-18">
          <mxGeometry relative="1" as="geometry" />
        </mxCell>
        <mxCell id="FCD5nn3ERw38IQWh4Jvh-73" style="edgeStyle=orthogonalEdgeStyle;rounded=0;orthogonalLoop=1;jettySize=auto;html=1;exitX=1;exitY=0.5;exitDx=0;exitDy=0;" edge="1" parent="1" source="FCD5nn3ERw38IQWh4Jvh-2" target="FCD5nn3ERw38IQWh4Jvh-23">
          <mxGeometry relative="1" as="geometry" />
        </mxCell>
        <mxCell id="FCD5nn3ERw38IQWh4Jvh-74" style="edgeStyle=orthogonalEdgeStyle;rounded=0;orthogonalLoop=1;jettySize=auto;html=1;exitX=1;exitY=0.75;exitDx=0;exitDy=0;entryX=0;entryY=0.5;entryDx=0;entryDy=0;" edge="1" parent="1" source="FCD5nn3ERw38IQWh4Jvh-2" target="FCD5nn3ERw38IQWh4Jvh-21">
          <mxGeometry relative="1" as="geometry" />
        </mxCell>
        <mxCell id="FCD5nn3ERw38IQWh4Jvh-75" style="edgeStyle=orthogonalEdgeStyle;rounded=0;orthogonalLoop=1;jettySize=auto;html=1;exitX=0.75;exitY=1;exitDx=0;exitDy=0;entryX=0;entryY=0.5;entryDx=0;entryDy=0;" edge="1" parent="1" source="FCD5nn3ERw38IQWh4Jvh-2" target="FCD5nn3ERw38IQWh4Jvh-20">
          <mxGeometry relative="1" as="geometry" />
        </mxCell>
        <mxCell id="FCD5nn3ERw38IQWh4Jvh-2" value="cliente" style="whiteSpace=wrap;html=1;align=center;" vertex="1" parent="1">
          <mxGeometry x="140" y="570" width="100" height="40" as="geometry" />
        </mxCell>
        <mxCell id="FCD5nn3ERw38IQWh4Jvh-27" style="edgeStyle=orthogonalEdgeStyle;rounded=0;orthogonalLoop=1;jettySize=auto;html=1;exitX=0.5;exitY=0;exitDx=0;exitDy=0;entryX=0.5;entryY=1;entryDx=0;entryDy=0;" edge="1" parent="1" source="FCD5nn3ERw38IQWh4Jvh-50" target="FCD5nn3ERw38IQWh4Jvh-58">
          <mxGeometry relative="1" as="geometry">
            <mxPoint x="399.8571428571429" y="310" as="targetPoint" />
            <mxPoint x="400" y="400" as="sourcePoint" />
          </mxGeometry>
        </mxCell>
        <mxCell id="FCD5nn3ERw38IQWh4Jvh-29" style="edgeStyle=orthogonalEdgeStyle;rounded=0;orthogonalLoop=1;jettySize=auto;html=1;exitX=1;exitY=0;exitDx=0;exitDy=0;entryX=0.246;entryY=1.009;entryDx=0;entryDy=0;entryPerimeter=0;" edge="1" parent="1" target="FCD5nn3ERw38IQWh4Jvh-59">
          <mxGeometry relative="1" as="geometry">
            <mxPoint x="430.6399999999999" y="351.8299999999999" as="targetPoint" />
            <mxPoint x="430" y="415" as="sourcePoint" />
          </mxGeometry>
        </mxCell>
        <mxCell id="FCD5nn3ERw38IQWh4Jvh-31" style="edgeStyle=orthogonalEdgeStyle;rounded=0;orthogonalLoop=1;jettySize=auto;html=1;exitX=1;exitY=0;exitDx=0;exitDy=0;entryX=0.302;entryY=0.974;entryDx=0;entryDy=0;entryPerimeter=0;" edge="1" parent="1" target="FCD5nn3ERw38IQWh4Jvh-61">
          <mxGeometry relative="1" as="geometry">
            <mxPoint x="460" y="390" as="targetPoint" />
            <mxPoint x="430" y="415" as="sourcePoint" />
          </mxGeometry>
        </mxCell>
        <mxCell id="FCD5nn3ERw38IQWh4Jvh-4" value="Avalar" style="shape=rhombus;perimeter=rhombusPerimeter;whiteSpace=wrap;html=1;align=center;" vertex="1" parent="1">
          <mxGeometry x="130" y="720" width="120" height="60" as="geometry" />
        </mxCell>
        <mxCell id="FCD5nn3ERw38IQWh4Jvh-14" value="Cod_cliente" style="ellipse;whiteSpace=wrap;html=1;align=center;fontStyle=4;" vertex="1" parent="1">
          <mxGeometry x="250" y="498" width="100" height="40" as="geometry" />
        </mxCell>
        <mxCell id="FCD5nn3ERw38IQWh4Jvh-15" value="(1,1)" style="text;html=1;align=center;verticalAlign=middle;resizable=0;points=[];autosize=1;strokeColor=none;fillColor=none;" vertex="1" parent="1">
          <mxGeometry x="55" y="568" width="50" height="30" as="geometry" />
        </mxCell>
        <mxCell id="FCD5nn3ERw38IQWh4Jvh-16" value="M:N" style="text;html=1;align=center;verticalAlign=middle;resizable=0;points=[];autosize=1;strokeColor=none;fillColor=none;" vertex="1" parent="1">
          <mxGeometry x="670" y="415" width="50" height="30" as="geometry" />
        </mxCell>
        <mxCell id="FCD5nn3ERw38IQWh4Jvh-18" value="Nombre" style="ellipse;whiteSpace=wrap;html=1;align=center;" vertex="1" parent="1">
          <mxGeometry x="260" y="545" width="60" height="40" as="geometry" />
        </mxCell>
        <mxCell id="FCD5nn3ERw38IQWh4Jvh-20" value="DNI" style="ellipse;whiteSpace=wrap;html=1;align=center;" vertex="1" parent="1">
          <mxGeometry x="310" y="640" width="40" height="40" as="geometry" />
        </mxCell>
        <mxCell id="FCD5nn3ERw38IQWh4Jvh-21" value="Telefono" style="ellipse;whiteSpace=wrap;html=1;align=center;" vertex="1" parent="1">
          <mxGeometry x="330" y="590" width="60" height="40" as="geometry" />
        </mxCell>
        <mxCell id="FCD5nn3ERw38IQWh4Jvh-23" value="Direccion" style="ellipse;whiteSpace=wrap;html=1;align=center;" vertex="1" parent="1">
          <mxGeometry x="375" y="558" width="60" height="40" as="geometry" />
        </mxCell>
        <mxCell id="FCD5nn3ERw38IQWh4Jvh-35" style="edgeStyle=orthogonalEdgeStyle;rounded=0;orthogonalLoop=1;jettySize=auto;html=1;exitX=0;exitY=0;exitDx=0;exitDy=0;entryX=0.711;entryY=1.026;entryDx=0;entryDy=0;entryPerimeter=0;" edge="1" parent="1" target="FCD5nn3ERw38IQWh4Jvh-48">
          <mxGeometry relative="1" as="geometry">
            <mxPoint x="370" y="415" as="sourcePoint" />
            <mxPoint x="362.29999999999995" y="377.99" as="targetPoint" />
            <Array as="points">
              <mxPoint x="361" y="415" />
            </Array>
          </mxGeometry>
        </mxCell>
        <mxCell id="FCD5nn3ERw38IQWh4Jvh-36" value="Matricula" style="ellipse;whiteSpace=wrap;html=1;align=center;fontStyle=4;" vertex="1" parent="1">
          <mxGeometry x="660" y="695" width="100" height="40" as="geometry" />
        </mxCell>
        <mxCell id="FCD5nn3ERw38IQWh4Jvh-37" value="Modelo" style="ellipse;whiteSpace=wrap;html=1;align=center;" vertex="1" parent="1">
          <mxGeometry x="600" y="720" width="60" height="40" as="geometry" />
        </mxCell>
        <mxCell id="FCD5nn3ERw38IQWh4Jvh-38" value="Color" style="ellipse;whiteSpace=wrap;html=1;align=center;" vertex="1" parent="1">
          <mxGeometry x="560" y="770" width="60" height="40" as="geometry" />
        </mxCell>
        <mxCell id="FCD5nn3ERw38IQWh4Jvh-39" value="Marca" style="ellipse;whiteSpace=wrap;html=1;align=center;" vertex="1" parent="1">
          <mxGeometry x="510" y="710" width="60" height="40" as="geometry" />
        </mxCell>
        <mxCell id="FCD5nn3ERw38IQWh4Jvh-46" value="Precio_hora" style="ellipse;whiteSpace=wrap;html=1;align=center;" vertex="1" parent="1">
          <mxGeometry x="680" y="630" width="110" height="40" as="geometry" />
        </mxCell>
        <mxCell id="FCD5nn3ERw38IQWh4Jvh-47" value="(1,n)" style="text;html=1;align=center;verticalAlign=middle;resizable=0;points=[];autosize=1;strokeColor=none;fillColor=none;" vertex="1" parent="1">
          <mxGeometry x="550" y="595" width="50" height="30" as="geometry" />
        </mxCell>
        <mxCell id="FCD5nn3ERw38IQWh4Jvh-48" value="Num_reserva" style="ellipse;whiteSpace=wrap;html=1;align=center;fontStyle=4;" vertex="1" parent="1">
          <mxGeometry x="290" y="330" width="100" height="40" as="geometry" />
        </mxCell>
        <mxCell id="FCD5nn3ERw38IQWh4Jvh-49" value="1:N" style="text;html=1;align=center;verticalAlign=middle;resizable=0;points=[];autosize=1;strokeColor=none;fillColor=none;" vertex="1" parent="1">
          <mxGeometry x="60" y="735" width="40" height="30" as="geometry" />
        </mxCell>
        <mxCell id="FCD5nn3ERw38IQWh4Jvh-55" style="edgeStyle=orthogonalEdgeStyle;rounded=0;orthogonalLoop=1;jettySize=auto;html=1;exitX=1;exitY=0.5;exitDx=0;exitDy=0;entryX=0;entryY=0.5;entryDx=0;entryDy=0;" edge="1" parent="1" source="FCD5nn3ERw38IQWh4Jvh-50" target="FCD5nn3ERw38IQWh4Jvh-52">
          <mxGeometry relative="1" as="geometry" />
        </mxCell>
        <mxCell id="FCD5nn3ERw38IQWh4Jvh-57" style="edgeStyle=orthogonalEdgeStyle;rounded=0;orthogonalLoop=1;jettySize=auto;html=1;exitX=0;exitY=0.5;exitDx=0;exitDy=0;entryX=1;entryY=0.5;entryDx=0;entryDy=0;" edge="1" parent="1" source="FCD5nn3ERw38IQWh4Jvh-50" target="FCD5nn3ERw38IQWh4Jvh-51">
          <mxGeometry relative="1" as="geometry" />
        </mxCell>
        <mxCell id="FCD5nn3ERw38IQWh4Jvh-50" value="Reserva" style="whiteSpace=wrap;html=1;align=center;" vertex="1" parent="1">
          <mxGeometry x="350" y="410" width="100" height="40" as="geometry" />
        </mxCell>
        <mxCell id="FCD5nn3ERw38IQWh4Jvh-51" value="Hace" style="shape=rhombus;perimeter=rhombusPerimeter;whiteSpace=wrap;html=1;align=center;" vertex="1" parent="1">
          <mxGeometry x="130" y="400" width="120" height="60" as="geometry" />
        </mxCell>
        <mxCell id="FCD5nn3ERw38IQWh4Jvh-52" value="Incluye" style="shape=rhombus;perimeter=rhombusPerimeter;whiteSpace=wrap;html=1;align=center;" vertex="1" parent="1">
          <mxGeometry x="550" y="400" width="120" height="60" as="geometry" />
        </mxCell>
        <mxCell id="FCD5nn3ERw38IQWh4Jvh-58" value="&lt;span style=&quot;text-wrap-mode: nowrap;&quot;&gt;Precio_total&lt;/span&gt;" style="ellipse;whiteSpace=wrap;html=1;align=center;" vertex="1" parent="1">
          <mxGeometry x="367.5" y="268" width="65" height="40" as="geometry" />
        </mxCell>
        <mxCell id="FCD5nn3ERw38IQWh4Jvh-59" value="&lt;span style=&quot;text-wrap-mode: nowrap;&quot;&gt;Fecha_ini&lt;/span&gt;" style="ellipse;whiteSpace=wrap;html=1;align=center;" vertex="1" parent="1">
          <mxGeometry x="414" y="310" width="65" height="40" as="geometry" />
        </mxCell>
        <mxCell id="FCD5nn3ERw38IQWh4Jvh-61" value="&lt;span style=&quot;text-wrap-mode: nowrap;&quot;&gt;Fecha_fin&lt;/span&gt;" style="ellipse;whiteSpace=wrap;html=1;align=center;" vertex="1" parent="1">
          <mxGeometry x="440" y="350" width="65" height="40" as="geometry" />
        </mxCell>
        <mxCell id="FCD5nn3ERw38IQWh4Jvh-65" style="edgeStyle=orthogonalEdgeStyle;rounded=0;orthogonalLoop=1;jettySize=auto;html=1;exitX=1;exitY=1;exitDx=0;exitDy=0;entryX=0.067;entryY=0.329;entryDx=0;entryDy=0;entryPerimeter=0;" edge="1" parent="1" source="FCD5nn3ERw38IQWh4Jvh-1" target="FCD5nn3ERw38IQWh4Jvh-36">
          <mxGeometry relative="1" as="geometry" />
        </mxCell>
        <mxCell id="FCD5nn3ERw38IQWh4Jvh-66" style="edgeStyle=orthogonalEdgeStyle;rounded=0;orthogonalLoop=1;jettySize=auto;html=1;exitX=0.75;exitY=1;exitDx=0;exitDy=0;entryX=0.597;entryY=0.037;entryDx=0;entryDy=0;entryPerimeter=0;" edge="1" parent="1" source="FCD5nn3ERw38IQWh4Jvh-1" target="FCD5nn3ERw38IQWh4Jvh-37">
          <mxGeometry relative="1" as="geometry" />
        </mxCell>
        <mxCell id="FCD5nn3ERw38IQWh4Jvh-78" value="Num_reserva" style="text;html=1;align=center;verticalAlign=middle;resizable=0;points=[];autosize=1;strokeColor=none;fillColor=none;" vertex="1" parent="1">
          <mxGeometry x="520" y="350" width="100" height="30" as="geometry" />
        </mxCell>
        <mxCell id="FCD5nn3ERw38IQWh4Jvh-79" value="Matricula" style="text;html=1;align=center;verticalAlign=middle;resizable=0;points=[];autosize=1;strokeColor=none;fillColor=none;" vertex="1" parent="1">
          <mxGeometry x="585" y="315" width="70" height="30" as="geometry" />
        </mxCell>
        <mxCell id="FCD5nn3ERw38IQWh4Jvh-80" value="Litros de gasolina" style="text;html=1;align=center;verticalAlign=middle;resizable=0;points=[];autosize=1;strokeColor=none;fillColor=none;" vertex="1" parent="1">
          <mxGeometry x="620" y="355" width="120" height="30" as="geometry" />
        </mxCell>
        <mxCell id="FCD5nn3ERw38IQWh4Jvh-81" style="edgeStyle=orthogonalEdgeStyle;rounded=0;orthogonalLoop=1;jettySize=auto;html=1;exitX=1;exitY=0;exitDx=0;exitDy=0;entryX=0.314;entryY=1.086;entryDx=0;entryDy=0;entryPerimeter=0;" edge="1" parent="1" source="FCD5nn3ERw38IQWh4Jvh-52" target="FCD5nn3ERw38IQWh4Jvh-80">
          <mxGeometry relative="1" as="geometry" />
        </mxCell>
        <mxCell id="FCD5nn3ERw38IQWh4Jvh-82" style="edgeStyle=orthogonalEdgeStyle;rounded=0;orthogonalLoop=1;jettySize=auto;html=1;exitX=0.5;exitY=0;exitDx=0;exitDy=0;entryX=0.497;entryY=1.017;entryDx=0;entryDy=0;entryPerimeter=0;" edge="1" parent="1" source="FCD5nn3ERw38IQWh4Jvh-52" target="FCD5nn3ERw38IQWh4Jvh-79">
          <mxGeometry relative="1" as="geometry" />
        </mxCell>
        <mxCell id="FCD5nn3ERw38IQWh4Jvh-83" style="edgeStyle=orthogonalEdgeStyle;rounded=0;orthogonalLoop=1;jettySize=auto;html=1;exitX=0;exitY=0;exitDx=0;exitDy=0;entryX=0.473;entryY=1.115;entryDx=0;entryDy=0;entryPerimeter=0;" edge="1" parent="1" source="FCD5nn3ERw38IQWh4Jvh-52" target="FCD5nn3ERw38IQWh4Jvh-78">
          <mxGeometry relative="1" as="geometry" />
        </mxCell>
        <mxCell id="FCD5nn3ERw38IQWh4Jvh-84" value="(0,n)" style="text;html=1;align=center;verticalAlign=middle;resizable=0;points=[];autosize=1;strokeColor=none;fillColor=none;" vertex="1" parent="1">
          <mxGeometry x="310" y="445" width="50" height="30" as="geometry" />
        </mxCell>
        <mxCell id="FCD5nn3ERw38IQWh4Jvh-85" value="1:N" style="text;html=1;align=center;verticalAlign=middle;resizable=0;points=[];autosize=1;strokeColor=none;fillColor=none;" vertex="1" parent="1">
          <mxGeometry x="145" y="370" width="40" height="30" as="geometry" />
        </mxCell>
        <mxCell id="FCD5nn3ERw38IQWh4Jvh-86" value="(0,n)" style="text;html=1;align=center;verticalAlign=middle;resizable=0;points=[];autosize=1;strokeColor=none;fillColor=none;" vertex="1" parent="1">
          <mxGeometry x="455" y="445" width="50" height="30" as="geometry" />
        </mxCell>
      </root>
    </mxGraphModel>
  </diagram>
</mxfile>
